<svg width="25" height="25" viewBox="0 0 25 25" fill="none" xmlns="http://www.w3.org/2000/svg">
<path d="M16.9978 6.09851C16.9978 8.96504 14.674 11.2888 11.8075 11.2888C8.94097 11.2888 6.61719 8.96504 6.61719 6.09851C6.61719 3.23198 8.94097 0.908203 11.8075 0.908203C14.674 0.908203 16.9978 3.23198 16.9978 6.09851Z" fill="#004E63"/>
<path fill-rule="evenodd" clip-rule="evenodd" d="M11.8076 1.81661C9.44271 1.81661 7.52559 3.73373 7.52559 6.09862C7.52559 8.4635 9.44271 10.3806 11.8076 10.3806C14.1725 10.3806 16.0896 8.4635 16.0896 6.09862C16.0896 3.73373 14.1725 1.81661 11.8076 1.81661ZM5.70898 6.09862C5.70898 2.73044 8.43943 0 11.8076 0C15.1758 0 17.9062 2.73044 17.9062 6.09862C17.9062 9.46679 15.1758 12.1972 11.8076 12.1972C8.43943 12.1972 5.70898 9.46679 5.70898 6.09862Z" fill="#004E63"/>
<path d="M23.3996 24.0919H0.908203C0.908203 21.2084 3.15734 15.4414 12.1539 15.4414C21.1504 15.4414 23.3996 21.2084 23.3996 24.0919Z" fill="#004E63"/>
<path fill-rule="evenodd" clip-rule="evenodd" d="M2.4943 18.0648C4.38023 16.0499 7.44742 14.5332 12.154 14.5332C16.8605 14.5332 19.9277 16.0499 21.8137 18.0648C23.6758 20.0543 24.308 22.4472 24.308 24.092C24.308 24.5937 23.9013 25.0003 23.3997 25.0003H0.908305C0.406662 25.0003 0 24.5937 0 24.092C0 22.4472 0.632127 20.0543 2.4943 18.0648ZM1.89385 23.1837H22.4141C22.2251 22.0178 21.6661 20.5655 20.4874 19.3061C18.9996 17.7167 16.444 16.3498 12.154 16.3498C7.864 16.3498 5.30835 17.7167 3.82058 19.3061C2.64186 20.5655 2.08287 22.0178 1.89385 23.1837Z" fill="#004E63"/>
</svg>
