<svg width="24" height="27" viewBox="0 0 24 27" fill="none" xmlns="http://www.w3.org/2000/svg">
<path fill-rule="evenodd" clip-rule="evenodd" d="M11.9779 1.93815C11.8885 1.89346 11.7833 1.89346 11.694 1.93815L2.08011 6.74508C1.97257 6.79885 1.90463 6.90877 1.90463 7.02901V19.971C1.90463 20.0912 1.97257 20.2011 2.08011 20.2549L11.694 25.0619C11.7833 25.1065 11.8885 25.1065 11.9779 25.0619L21.5918 20.2549C21.6993 20.2012 21.7672 20.0912 21.7672 19.971V7.02901C21.7672 6.90877 21.6993 6.79885 21.5918 6.74508L11.9779 1.93815ZM10.8422 0.23459C11.4678 -0.0781973 12.2041 -0.0781964 12.8297 0.234591L22.4435 5.04152C23.1963 5.41793 23.6719 6.18735 23.6719 7.02901V19.971C23.6719 20.8127 23.1963 21.5821 22.4435 21.9585L12.8297 26.7654C12.2041 27.0782 11.4678 27.0782 10.8422 26.7654L1.22833 21.9585C0.475528 21.5821 0 20.8127 0 19.971V7.02901C0 6.18735 0.475528 5.41792 1.22833 5.04152L10.8422 0.23459Z" fill="#004E63"/>
<path fill-rule="evenodd" clip-rule="evenodd" d="M11.836 10.8246C10.3584 10.8246 9.16049 12.0224 9.16049 13.5001C9.16049 14.9778 10.3584 16.1757 11.836 16.1757C13.3137 16.1757 14.5116 14.9778 14.5116 13.5001C14.5116 12.0224 13.3137 10.8246 11.836 10.8246ZM7.25586 13.5001C7.25586 10.9705 9.30648 8.91992 11.836 8.91992C14.3656 8.91992 16.4162 10.9705 16.4162 13.5001C16.4162 16.0297 14.3656 18.0803 11.836 18.0803C9.30648 18.0803 7.25586 16.0297 7.25586 13.5001Z" fill="#004E63"/>
</svg>
