<svg width="18" height="23" viewBox="0 0 18 23" fill="none" xmlns="http://www.w3.org/2000/svg">
<path d="M5.47966 9.83333C5.47966 7.88883 7.05599 6.3125 9.00049 6.3125C10.945 6.3125 12.5213 7.88883 12.5213 9.83333C12.5213 11.7778 10.945 13.3542 9.00049 13.3542C7.05599 13.3542 5.47966 11.7778 5.47966 9.83333Z" fill="#004E63"/>
<path fill-rule="evenodd" clip-rule="evenodd" d="M0.0884929 8.61717C0.460768 4.10082 4.23488 0.625 8.76655 0.625H9.23448C13.7662 0.625 17.5403 4.10082 17.9125 8.61717C18.113 11.0488 17.3619 13.4633 15.8174 15.3522L10.6249 21.7025C9.78535 22.7292 8.21568 22.7292 7.37612 21.7025L2.18364 15.3522C0.639177 13.4634 -0.111943 11.0488 0.0884929 8.61717ZM9.00049 4.6875C6.15852 4.6875 3.85466 6.99137 3.85466 9.83333C3.85466 12.6753 6.15852 14.9792 9.00049 14.9792C11.8425 14.9792 14.1463 12.6753 14.1463 9.83333C14.1463 6.99137 11.8425 4.6875 9.00049 4.6875Z" fill="#004E63"/>
</svg>
