<svg width="60" height="60" viewBox="0 0 60 60" fill="none" xmlns="http://www.w3.org/2000/svg">
<rect opacity="0.15" width="60" height="60" rx="15" fill="#A7A7A7"/>
<path d="M18.3485 31.2892C21.1014 31.8169 23.3098 31.3065 24.1568 27.911C25.5873 30.3289 26.7584 32.3057 27.9296 34.2867C29.1094 36.2851 29.9435 36.2894 31.1492 34.2954C31.4129 33.8585 31.7067 33.4346 31.9012 32.9718C32.4198 31.7304 33.2625 31.1681 34.6541 31.3454C35.6394 31.4709 36.7501 31.393 36.6896 30.0002C36.6334 28.7285 35.5487 28.9361 34.6541 28.7891C32.1519 28.3738 30.514 29.3168 29.6842 32.1846C28.2797 29.8531 27.1085 27.9067 25.933 25.9559C24.6538 23.8278 23.7333 23.7456 22.7047 25.9862C21.6243 28.3349 20.0945 29.2303 17.5663 28.8453C16.2396 28.6463 14.861 28.7848 13.504 28.8107C12.618 28.828 12.0087 28.4171 12 27.5736C11.9957 26.7085 12.6612 26.2673 13.5083 26.3582C14.6665 26.4836 14.8566 26.0987 14.7183 24.9524C14.3121 21.5829 16.1877 18.4902 19.2388 17.158C22.3158 15.8171 25.7861 16.5308 28.0895 18.9833C28.284 19.1909 28.5087 19.3812 28.6427 19.6235C29.4379 21.0725 30.0559 20.8216 31.0282 19.6537C33.2323 16.9979 36.1191 15.9079 39.5073 16.8682C42.6189 17.7506 44.4253 19.9609 45.0088 23.1228C45.4107 25.2984 44.8489 27.2925 43.4919 29.014C39.7882 33.7201 36.0673 38.4089 32.3118 43.0717C30.9764 44.7283 28.9106 44.8927 27.6185 43.3355C24.4507 39.5248 21.3953 35.6189 18.2923 31.752C18.3096 31.5963 18.3269 31.4362 18.3442 31.2805L18.3485 31.2892Z" fill="#6C5FBC"/>
</svg>
