<svg width="60" height="60" viewBox="0 0 60 60" fill="none" xmlns="http://www.w3.org/2000/svg">
<rect opacity="0.15" width="60" height="60" rx="15" fill="#29B83C"/>
<path d="M20.7649 31.8892C23.6367 34.357 26.0536 37.1963 28.3649 40.4622C30.4004 35.7514 33.502 32.1828 37.325 29.1875C36.6817 28.6417 36.2911 29.1187 35.9465 29.3435C34.6416 30.1875 33.3734 31.0957 32.1006 31.9901C31.4711 32.4305 30.8921 33.513 30.281 33.2653C29.4079 32.9121 29.2058 31.7333 29.0771 30.7838C28.7417 28.3114 29.9042 26.5088 31.8203 25.1143C33.332 24.0135 35.0413 23.2658 36.7322 22.4952C39.5811 21.1971 42.3335 19.7522 44.6309 17.5735C45.095 17.1331 45.5821 16.8212 46.2391 17.1148C46.8089 17.3716 46.9468 17.8762 46.9652 18.445C47.1076 23.142 46.8687 27.8023 45.2007 32.2516C43.3811 37.1091 39.7557 38.7146 34.8713 36.7835C33.6628 36.3064 33.0931 36.5037 32.4268 37.5449C30.5199 40.5401 29.3712 43.7648 29.1047 47.3013C29.0449 48.081 29.0863 49.0443 27.9927 48.9984C26.8256 48.9526 26.8669 47.9755 26.9129 47.1086C26.9175 46.9894 26.9037 46.8609 26.945 46.7508C28.2454 43.2189 26.0398 40.8979 24.11 38.4577C23.5724 37.7788 23.0485 37.733 22.249 37.9394C18.2514 38.9714 16.0597 37.7192 14.9109 33.7744C14.0655 30.8663 13.8909 27.8848 14.0563 24.8758C14.0884 24.3116 14.0149 23.5961 14.7455 23.3484C15.3888 23.1328 15.7196 23.6924 16.0964 24.041C17.8747 25.7061 20.0343 26.7565 22.1847 27.816C23.3702 28.3986 24.5419 28.9995 25.5068 29.9306C26.2696 30.6645 26.7658 31.5223 26.844 32.5956C26.9037 33.3846 27.0094 34.3478 26.3431 34.7698C25.585 35.2514 25.2128 34.1873 24.6798 33.8295C23.4621 33.0038 22.3547 32.0177 20.7649 31.8755V31.8892Z" fill="#3ECC72"/>
</svg>
