<svg width="30" height="25" viewBox="0 0 30 25" fill="none" xmlns="http://www.w3.org/2000/svg">
<path d="M0 21.24V7.06C0.13 6.89 0.12 6.66 0.19 6.47C0.72 4.98 2.06 4.05 3.71 4.04C5.02 4.04 6.34 4.04 7.65 4.04C7.87 4.04 7.94 3.98 7.92 3.76C7.91 3.52 7.92 3.27 7.96 3.03C8.27 1.22 9.73 0 11.61 0C13.83 0 16.04 0 18.26 0C18.55 0 18.84 0.02 19.13 0.09C20.86 0.49 21.96 1.88 21.96 3.73C21.96 3.99 22.03 4.05 22.28 4.05C23.58 4.04 24.89 4.04 26.19 4.05C28.33 4.07 29.88 5.63 29.88 7.76C29.88 12.03 29.88 16.3 29.88 20.56C29.88 20.95 29.84 21.33 29.72 21.71C29.24 23.29 27.86 24.28 26.13 24.28C18.67 24.28 11.22 24.28 3.76 24.28C3.69 24.28 3.62 24.28 3.56 24.28C1.86 24.23 0.53 23.15 0.1 21.51C0.08 21.43 0.11 21.31 0 21.25L0 21.24ZM8.16 13.71C8.12 17.42 11.12 20.47 14.88 20.53C18.59 20.59 21.67 17.56 21.72 13.8C21.77 10.07 18.75 7.01 14.96 6.96C11.27 6.92 8.21 9.95 8.17 13.7L8.16 13.71Z" fill="#004E63"/>
<path d="M18.53 13.7502C18.53 15.7102 16.94 17.3202 14.97 17.3402C12.99 17.3602 11.38 15.7702 11.35 13.7702C11.32 11.8102 12.95 10.1702 14.93 10.1602C16.9 10.1602 18.52 11.7702 18.53 13.7502Z" fill="#004E63"/>
</svg>
