<svg width="60" height="60" viewBox="0 0 60 60" fill="none" xmlns="http://www.w3.org/2000/svg">
<rect opacity="0.15" width="60" height="60" rx="15" fill="#D08900"/>
<path d="M31.3798 27.6371V18.9629C31.3798 18.851 31.2345 18.8071 31.1725 18.9003L21.8704 32.8804C21.8128 32.9669 21.8927 33.0788 21.9933 33.0524L27.1528 31.6984C27.5112 31.6044 27.8617 31.8748 27.8617 32.2453V40.8483C27.8617 40.9587 28.0036 41.0037 28.0672 40.9134L37.3886 27.6846C37.4454 27.604 37.3792 27.4945 37.2815 27.5073L32.0187 28.1977C31.6801 28.2421 31.3798 27.9786 31.3798 27.6371Z" fill="#FDC965"/>
<path fill-rule="evenodd" clip-rule="evenodd" d="M31.015 18.4305C31.5726 17.6384 32.8785 18.0115 32.8785 18.963V27.3149L38.1082 26.6665C38.9865 26.5576 39.582 27.4886 39.0717 28.1732L29.2102 41.402C28.6385 42.1689 27.3621 41.7866 27.3621 40.8484V32.6119L22.2786 33.8728C21.3744 34.0971 20.6561 33.1463 21.1739 32.4106L31.015 18.4305ZM27.7371 32.5188C27.7369 32.5189 27.7372 32.5188 27.7371 32.5188V32.5188ZM32.5405 27.3569C32.5404 27.3569 32.5406 27.3568 32.5405 27.3569V27.3569ZM31.084 21.3945L23.8002 31.7417L27.2816 30.8782C28.2295 30.643 29.1566 31.319 29.1566 32.2454V38.5291L36.5834 28.5663L32.7739 29.0387C31.8784 29.1497 31.084 28.4908 31.084 27.6372V21.3945ZM37.6048 27.1961L37.6042 27.197L37.6048 27.1961Z" fill="#F4A101"/>
</svg>
