<svg width="27" height="27" viewBox="0 0 27 27" fill="none" xmlns="http://www.w3.org/2000/svg">
<path d="M11.0578 21.2728L4.84405 22.8673C4.41442 22.9776 4.02381 22.587 4.13405 22.1573L5.72841 15.9434C5.75438 15.8422 5.80706 15.7498 5.88096 15.6759L17.4759 4.08053C17.7037 3.85272 18.073 3.85272 18.3008 4.08053L22.9202 8.69992C23.148 8.92773 23.148 9.29709 22.9202 9.5249L11.3253 21.1203C11.2514 21.1942 11.159 21.2469 11.0578 21.2728Z" fill="#004E63"/>
<path fill-rule="evenodd" clip-rule="evenodd" d="M18.9195 3.46096L23.5389 8.08036C24.1084 8.64988 24.1084 9.57328 23.5389 10.1428L11.944 21.7382C11.7592 21.9229 11.5283 22.0546 11.2753 22.1196L5.06152 23.7141C3.98744 23.9897 3.01092 23.0131 3.28652 21.939L4.88088 15.7251C4.94581 15.4721 5.07752 15.2411 5.26225 15.0564L16.8572 3.46098C17.4267 2.89146 18.35 2.89146 18.9195 3.46096ZM17.8884 4.90468L6.5561 16.2374L5.10411 21.8964L10.763 20.4443L22.0952 9.1116L17.8884 4.90468Z" fill="#004E63"/>
<path fill-rule="evenodd" clip-rule="evenodd" d="M18.5086 8.4926C18.8503 8.8343 18.8503 9.38832 18.5086 9.73003L11.5089 16.73C11.1672 17.0718 10.6131 17.0718 10.2714 16.7301C9.92971 16.3884 9.9297 15.8343 10.2714 15.4926L17.2711 8.49262C17.6128 8.15091 18.1669 8.1509 18.5086 8.4926Z" fill="white"/>
<path fill-rule="evenodd" clip-rule="evenodd" d="M8.13128 17.6313C8.47299 17.2896 9.02701 17.2896 9.36872 17.6313L10.5354 18.7979C10.8771 19.1397 10.8771 19.6937 10.5354 20.0354C10.1937 20.3771 9.63966 20.3771 9.29795 20.0354L8.13128 18.8687C7.78957 18.527 7.78957 17.973 8.13128 17.6313Z" fill="white"/>
<path fill-rule="evenodd" clip-rule="evenodd" d="M20.3825 0.715254C20.7242 0.373552 21.2782 0.373563 21.62 0.715278L26.2864 5.38195C26.6281 5.72366 26.6281 6.27768 26.2864 6.61938C25.9447 6.96109 25.3907 6.96107 25.049 6.61936L20.3825 1.95269C20.0408 1.61098 20.0408 1.05696 20.3825 0.715254Z" fill="#004E63"/>
</svg>
