<svg width="29" height="30" viewBox="0 0 29 30" fill="none" xmlns="http://www.w3.org/2000/svg">
<path d="M25.2309 2.9307C24.5782 2.94177 24.4075 2.74104 24.3206 2.14045C24.1356 0.860229 23.072 0.00675121 21.7886 0.000429147C20.4989 -0.0043124 19.4052 0.83178 19.2376 2.10884C19.1491 2.7853 18.9199 3.03028 18.2688 2.91332C18.1155 2.88645 17.9511 2.88961 17.7962 2.91332C17.2651 2.9955 17.0897 2.79162 17.0407 2.24476C16.9301 1.0088 15.8948 0.0747133 14.681 0.00517069C13.3344 -0.070694 12.1696 0.692695 11.9736 2.00294C11.8471 2.84377 11.5121 3.0445 10.7787 2.91174C10.6776 2.89277 10.5669 2.89751 10.4642 2.91174C9.99478 2.97338 9.79405 2.85168 9.7577 2.2985C9.67393 1.03092 8.60709 0.0652302 7.36322 0.00517069C6.00556 -0.0612109 4.78224 0.782784 4.63842 2.09935C4.55465 2.8659 4.27806 2.93228 3.63637 2.92438C1.25927 2.89751 0.0027659 4.18563 0.00118539 6.57853C-0.000395129 13.1819 -0.000395129 19.7869 0.00118539 26.3903C0.00118539 28.7152 1.28772 29.9954 3.6174 29.9986C7.22256 30.0018 10.8261 29.9986 14.4313 29.9986C18.0364 29.9986 21.64 30.0002 25.2452 29.9986C27.6238 29.997 28.8772 28.731 28.8788 26.3365C28.8788 19.7332 28.8788 13.1282 28.8788 6.52479C28.8788 4.11293 27.6697 2.88645 25.2294 2.9307H25.2309ZM20.8339 2.64621C20.8687 2.05984 21.1911 1.71845 21.7854 1.71687C22.3433 1.71687 22.6816 2.0472 22.71 2.58773C22.7495 3.37325 22.7448 4.1635 22.71 4.94902C22.6879 5.4943 22.3465 5.83253 21.8028 5.84517C21.2164 5.8594 20.8798 5.5101 20.8355 4.92847C20.8055 4.53651 20.8292 4.14138 20.8292 3.74783C20.8292 3.38115 20.8102 3.01131 20.8324 2.64621H20.8339ZM13.5746 2.59405C13.6205 2.04878 13.9413 1.72793 14.4961 1.71687C15.054 1.7058 15.4112 2.02507 15.4428 2.56402C15.4902 3.37483 15.4902 4.19195 15.4397 5.00276C15.4065 5.54013 15.035 5.86256 14.4866 5.84833C13.9397 5.83411 13.6189 5.49904 13.5746 4.95534C13.543 4.56496 13.5683 4.16825 13.5683 3.7747C13.5683 3.38115 13.5415 2.98444 13.5746 2.59405ZM6.29005 2.59089C6.3185 2.0709 6.61564 1.76902 7.12615 1.72003C7.68565 1.66629 8.09026 1.96501 8.13451 2.48974C8.20406 3.34796 8.19931 4.2204 8.13135 5.0802C8.09342 5.567 7.70619 5.8752 7.19095 5.84991C6.65199 5.82304 6.3185 5.5101 6.29005 4.95218C6.26793 4.53335 6.28531 4.11293 6.28531 3.69251C6.28531 3.32583 6.26951 2.95757 6.29005 2.59089ZM27.284 26.7064C27.284 27.6752 26.7356 28.2853 25.7762 28.377C25.5929 28.3944 25.408 28.3849 25.2246 28.3849C18.0965 28.3849 10.9684 28.3849 3.84184 28.3849C2.20916 28.3849 1.72237 27.8997 1.72237 26.2765C1.72237 21.1208 1.73343 15.9668 1.70656 10.8111C1.7034 10.2121 1.85987 10.0841 2.43992 10.0889C6.49078 10.1157 10.5401 10.1031 14.5909 10.1031C18.6418 10.1031 22.4808 10.1189 26.4258 10.0873C27.0833 10.0825 27.3062 10.1916 27.3014 10.9234C27.2635 16.1833 27.2824 21.4433 27.284 26.7048V26.7064Z" fill="#004E63"/>
<path d="M16.9838 21.3221C16.9838 20.603 16.6139 20.2727 15.9059 20.2774C14.9876 20.2837 14.0693 20.2837 13.151 20.2774C12.4461 20.2727 12.0684 20.584 12.0873 21.319C12.0984 21.7915 12.0889 22.2641 12.0889 22.7351C12.0889 23.2077 12.1095 23.6802 12.0842 24.1512C12.0462 24.8814 12.3829 25.2276 13.102 25.226C14.0472 25.226 14.9907 25.226 15.9359 25.226C16.6534 25.226 16.9901 24.8625 16.9854 24.1528C16.9806 23.2077 16.9838 22.2641 16.9854 21.319L16.9838 21.3221Z" fill="#004E63"/>
<path d="M8.84602 20.2841C7.87558 20.2762 6.90673 20.2794 5.93629 20.2841C5.30725 20.2873 4.94373 20.5971 4.93425 21.2372C4.92002 22.2598 4.91686 23.2823 4.93425 24.3049C4.94531 24.9024 5.29144 25.2201 5.88414 25.228C6.87986 25.2406 7.87716 25.2406 8.87289 25.228C9.50826 25.2201 9.83226 24.885 9.82436 24.2386C9.81804 23.766 9.82436 23.295 9.82436 22.8224C9.82436 22.3246 9.81488 21.8267 9.82752 21.3288C9.84491 20.6508 9.52722 20.292 8.84602 20.2873V20.2841Z" fill="#004E63"/>
<path d="M5.82849 18.1939C6.87795 18.197 7.92583 18.2002 8.97529 18.1907C9.51267 18.186 9.80032 17.8888 9.81612 17.3594C9.83193 16.8362 9.81929 16.3115 9.81929 15.7868C9.81929 15.7868 9.82245 15.7868 9.82403 15.7868C9.82403 15.262 9.82877 14.7373 9.82403 14.2141C9.81771 13.612 9.51741 13.288 8.90575 13.2848C7.88316 13.2801 6.86056 13.2801 5.83797 13.2848C5.26108 13.288 4.95604 13.6199 4.94182 14.1652C4.91653 15.213 4.91653 16.2625 4.94182 17.3104C4.95446 17.8541 5.24844 18.1923 5.83007 18.1923L5.82849 18.1939Z" fill="#004E63"/>
<path d="M16.0356 13.2809C15.0383 13.2809 14.041 13.2825 13.0436 13.2809C12.3877 13.2793 12.0859 13.6175 12.089 14.2561C12.089 14.7539 12.089 15.2534 12.089 15.7512C12.089 16.2491 12.0953 16.7485 12.0874 17.2464C12.0764 17.9055 12.3972 18.2026 13.05 18.1947C14.0473 18.1836 15.0446 18.1884 16.0419 18.1931C16.6662 18.1963 16.9649 17.8549 16.976 17.2717C16.9965 16.2491 16.9965 15.2249 16.976 14.2023C16.9633 13.6175 16.6535 13.2793 16.0356 13.2793V13.2809Z" fill="#004E63"/>
<path d="M20.0519 18.1917C20.5766 18.1996 21.1014 18.1933 21.6245 18.1933C22.1224 18.1933 22.6218 18.1854 23.1197 18.1965C23.7361 18.2091 24.0648 17.8914 24.0791 17.3035C24.1043 16.2556 24.1059 15.2061 24.0775 14.1583C24.0632 13.613 23.7519 13.2858 23.175 13.2842C22.1524 13.2811 21.1298 13.2795 20.1072 13.2842C19.543 13.2874 19.2111 13.5687 19.2032 14.1425C19.1889 15.2172 19.1874 16.292 19.2032 17.3667C19.2111 17.8978 19.5145 18.1838 20.0503 18.1917H20.0519Z" fill="#004E63"/>
<path d="M24.4916 20.355C24.068 20.14 23.6618 20.1922 23.3236 20.502C22.821 20.9635 22.3089 21.425 21.8758 21.9497C21.3669 22.5645 20.9781 22.7463 20.3917 22.005C19.9571 21.455 19.2111 21.485 18.7938 21.9181C18.3513 22.378 18.386 22.966 18.9155 23.5239C19.3486 23.9807 19.7959 24.428 20.2526 24.861C20.8722 25.449 21.3542 25.4553 21.9627 24.8642C22.8842 23.9664 23.7867 23.0482 24.697 22.1378C24.9278 21.907 25.0827 21.6431 25.0858 21.2021C25.0495 20.8876 24.8835 20.5541 24.4916 20.355Z" fill="#004E63"/>
</svg>
