<svg width="103" height="105" viewBox="0 0 103 105" fill="none" xmlns="http://www.w3.org/2000/svg">
<g clip-path="url(#clip0_18_89)">
<path d="M7.97814 37.4678C3.57008 37.4678 0 41.0349 0 45.4394V67.7842C0 88.8034 28.1592 96.6704 42.8323 103.159C48.3576 105.601 54.6336 105.601 60.1677 103.159C74.8408 96.6704 103 88.8034 103 67.7842V45.4394C103 41.0349 99.4299 37.4678 95.0219 37.4678H7.97814Z" fill="url(#paint0_linear_18_89)"/>
<path d="M28.5346 0.26165C28.5346 0.26165 30.3152 0 33.0561 0C35.1859 0 37.4554 0.174433 37.4554 0.174433C37.7609 0.174433 38.0228 0.436083 38.0228 0.741341V6.39297C38.0228 6.61101 37.8482 6.78545 37.63 6.78545H36.5389V16.3095C36.5389 16.8328 36.9317 17.0944 36.9317 17.0944C36.9317 17.0944 36.5389 17.3997 36.5389 17.923V27.1418H37.63C37.8482 27.1418 38.0228 27.3162 38.0228 27.5343V33.2295C38.0228 33.4912 37.7609 33.7964 37.4554 33.7964C37.4554 33.7964 35.1946 33.9272 33.0561 33.9272C30.3152 33.9272 28.5346 33.7092 28.5346 33.7092C28.4036 33.7092 28.2727 33.5784 28.2727 33.3603V27.447C28.2727 27.2726 28.4036 27.0982 28.5346 27.0982C28.5346 27.0982 28.971 27.1418 29.7566 27.1418V20.5744H14.9874V27.1418H16.0785C16.2968 27.1418 16.4713 27.3162 16.4713 27.5343V33.2295C16.4713 33.4912 16.1658 33.7964 15.904 33.7964C15.904 33.7964 13.6432 33.9272 11.5134 33.9272C8.72888 33.9272 6.99185 33.7092 6.99185 33.7092C6.86091 33.7092 6.72998 33.5784 6.72998 33.3603V27.447C6.72998 27.2726 6.86091 27.0982 6.99185 27.0982C6.99185 27.0982 7.42829 27.1418 8.21388 27.1418V17.923C8.21388 17.3997 7.82108 17.0944 7.82108 17.0944C7.82108 17.0944 8.21388 16.8328 8.21388 16.3095V6.82906H6.99185C6.86091 6.82906 6.72998 6.69823 6.72998 6.5238V0.566908C6.72998 0.392474 6.86091 0.26165 6.99185 0.26165C6.99185 0.26165 8.72888 0 11.5134 0C13.6432 0 15.904 0.174433 15.904 0.174433C16.1658 0.174433 16.4713 0.436083 16.4713 0.741341V6.39297C16.4713 6.61101 16.2968 6.78545 16.0785 6.78545H14.9874V13.8325H29.7566V6.82906H28.5346C28.4036 6.82906 28.2727 6.69823 28.2727 6.5238V0.566908C28.2727 0.392474 28.4036 0.26165 28.5346 0.26165Z" fill="url(#paint1_linear_18_89)"/>
<path d="M65.7716 11.5648C65.7716 11.7828 65.6407 11.9136 65.4661 11.9136H59.1115C58.937 11.9136 58.7624 11.7828 58.7624 11.5648V7.25628L59.1115 6.73298H46.5159V11.338L65.7716 18.2543V30.2553L62.1579 33.8224H44.0282L40.1962 29.9936V22.2575C40.1962 22.0395 40.3271 21.9087 40.5017 21.9087H46.8563C47.0309 21.9087 47.2054 22.0395 47.2054 22.2575V26.5137L46.8563 27.0806H59.452V23.0774L40.1962 16.2047V8.20694C40.1962 7.68364 39.7598 7.42199 39.7598 7.42199C39.7598 7.42199 40.1962 7.11673 40.1962 6.59344V3.6368L43.8099 -0.0175781H61.9397L65.7716 3.81123V6.59344C65.7716 7.11673 66.2081 7.37839 66.2081 7.37839C66.2081 7.37839 65.7716 7.68364 65.7716 8.20694V11.5561V11.5648Z" fill="url(#paint2_linear_18_89)"/>
<path d="M96.1133 24.5689C96.1133 24.5689 96.2878 26.8714 96.2878 29.0431C96.2878 31.7817 96.026 33.4737 96.026 33.4737C96.026 33.6045 95.9387 33.6918 95.8077 33.7354C90.6752 34.0842 75.8275 34.0406 70.8259 33.7354C69.1674 33.6918 68.216 33.5609 68.216 33.5609C68.085 33.5609 67.9541 33.3865 67.9541 33.2121V27.2988C67.9541 27.1243 68.085 26.9499 68.216 26.9499L69.438 27.0371V17.9492C69.438 17.4695 69.0452 17.1642 69.0452 17.1642C69.0452 17.1642 69.438 16.9026 69.438 16.3357V6.78545C68.6524 6.82906 68.216 6.82906 68.216 6.82906C68.085 6.82906 67.9541 6.69823 67.9541 6.5238V0.566908C67.9541 0.392474 68.085 0.26165 68.216 0.26165C68.216 0.26165 75.8275 0 78.612 0H85.7958C89.3659 0 93.0233 0.0436083 95.8077 0.26165C95.9387 0.305258 96.026 0.392475 96.026 0.523299C96.026 0.523299 96.2878 2.25891 96.2878 5.04112C96.2878 7.1692 96.1133 9.42811 96.1133 9.42811C96.1133 9.68976 95.8514 9.99502 95.5459 9.99502H89.8896C89.6278 9.99502 89.4968 9.82058 89.4968 9.60254C89.4968 9.60254 89.5405 8.42512 89.5405 6.82033H89.4968C85.8394 6.77673 76.5694 6.99477 76.2203 7.03838V13.7802H89.0255C89.331 13.7802 89.5928 14.0419 89.5928 14.3471V16.3444C89.5928 16.9113 89.9856 17.1729 89.9856 17.1729C89.9856 17.1729 89.5928 17.4782 89.5928 17.9579V19.9988C89.5928 20.304 89.331 20.5657 89.0255 20.5657H76.2203V26.9586C76.3076 26.9586 76.5694 27.0022 76.9186 27.0022H77.3114C77.3114 27.0022 77.4423 27.0022 77.486 27.0459C78.6644 27.1331 87.2011 27.1767 89.5055 27.1767H89.5492C89.5492 25.5719 89.5055 24.3945 89.5055 24.3945C89.5055 24.1764 89.6365 24.002 89.8983 24.002H95.5546C95.8601 24.002 96.122 24.2636 96.122 24.5689H96.1133Z" fill="url(#paint3_linear_18_89)"/>
<path d="M18.601 63.3454C18.4265 61.9587 18.2519 59.3247 18.601 57.9031C18.6883 57.5542 18.7756 57.2577 18.9065 57.0833C19.1248 57.3013 19.5088 57.3013 19.5088 57.3013H29.8001C30.0183 60.4934 30.2278 69.7035 29.6692 71.9014C29.6255 72.0758 29.9747 72.5032 29.9747 72.5032C29.9747 72.5032 21.499 76.9512 18.3915 76.9512C15.2841 76.9512 7.14883 72.5032 7.14883 72.5032C7.14883 72.5032 7.49798 72.0758 7.45434 71.9014C6.72112 67.0172 6.32832 52.1207 7.45434 47.6203C7.49798 47.4458 7.14883 47.0185 7.14883 47.0185C7.14883 47.0185 15.1008 41.5762 18.3915 41.5762C21.6823 41.5762 29.547 47.0185 29.547 47.0185C29.547 47.0185 29.2851 47.4982 29.3287 47.6639C29.5033 48.3529 29.6343 49.9141 29.6343 50.8647C29.6343 51.0392 29.8525 51.4229 30.0271 51.5974H22.4592C22.4592 51.5974 22.6774 51.2485 22.4592 50.8211C21.6823 49.3123 19.3866 48.5361 17.9202 48.5361C15.9737 48.5361 13.4685 50.9956 13.4685 50.9956C13.4685 50.9956 13.6431 51.2572 13.6431 51.3444C13.2503 54.022 13.1717 64.4356 13.6431 67.3312C13.6431 67.4184 13.4685 67.6801 13.4685 67.6801C13.4685 67.6801 16.4974 69.6686 18.4003 69.6686C20.3032 69.6686 23.0265 67.6801 23.0265 67.6801C23.0265 67.6801 23.0702 65.7352 23.1575 63.8338H19.5263C19.5263 63.8338 19.1335 63.9647 18.924 64.1391C18.7931 63.9647 18.6621 63.7117 18.6185 63.3629L18.601 63.3454Z" fill="white"/>
<path d="M31.3101 69.5637C31.3101 69.3893 31.441 69.2148 31.5719 69.2148C31.5719 69.2148 32.1742 69.2584 33.2566 69.2584L39.7857 42.7795L39.6548 42.2998H46.6117L46.4807 42.7795L53.0099 69.302C53.9613 69.2584 54.5636 69.2584 54.5636 69.2584C54.8255 69.2584 54.9564 69.4329 54.9564 69.6509V75.3113C54.9564 75.6165 54.6945 75.8694 54.4414 75.8694C54.4414 75.8694 52.1894 76.0439 50.0334 76.0439C47.31 76.0439 45.5817 75.7822 45.5817 75.7822C45.4071 75.7822 45.3198 75.6514 45.3198 75.477V69.555C45.3198 69.3805 45.4071 69.2061 45.5817 69.2061C45.5817 69.2061 45.9745 69.2497 46.664 69.2497L46.1054 66.1797C44.508 66.4849 42.1687 66.7815 40.1785 66.2233L39.6199 69.2497H40.615C40.8332 69.2497 41.0078 69.4241 41.0078 69.6422V75.3025C41.0078 75.6078 40.7023 75.8607 40.4491 75.8607C40.4491 75.8607 38.2058 76.0352 36.0847 76.0352C33.3177 76.0352 31.5894 75.7735 31.5894 75.7735C31.4584 75.7735 31.3275 75.6427 31.3275 75.4683V69.5463L31.3101 69.5637ZM41.3831 59.8478C42.5964 60.1094 43.6788 60.0658 44.8834 59.8478L43.1551 50.5592L41.3831 59.8478Z" fill="white"/>
<path d="M72.999 47.4895C72.999 49.6525 72.8244 51.894 72.8244 51.894C72.8244 52.1556 72.5625 52.4085 72.2658 52.4085H66.6444C66.4262 52.4085 66.2516 52.2777 66.2516 52.0161C66.2516 52.0161 66.2953 51.109 66.2953 49.513V49.4693H65.4311L65.3875 49.513V58.5399C65.4311 59.0544 65.8239 59.3161 65.8239 59.3161C65.8239 59.3161 65.4311 59.6213 65.3875 60.0923V75.5558C65.3875 75.8175 65.2129 75.9832 64.9947 75.9832H59.1114C58.8496 75.9832 58.675 75.8087 58.675 75.5558V49.5042L58.6314 49.4606C58.3258 49.4606 57.9854 49.4606 57.7672 49.5042V49.5478C57.7672 51.1439 57.8109 52.0073 57.8109 52.0073C57.8109 52.269 57.6363 52.3998 57.4181 52.3998H51.7967C51.4912 52.3998 51.2381 52.1382 51.2381 51.8852C51.2381 51.8852 51.0635 49.6351 51.0635 47.4808C51.0635 44.7596 51.3253 43.0328 51.3253 43.0328C51.3253 42.9019 51.4126 42.8147 51.5436 42.7711C51.6308 42.7275 58.2036 42.3438 61.8348 42.3438C65.466 42.3438 72.3443 42.7275 72.5102 42.7711C72.6411 42.8147 72.772 42.9019 72.772 43.0328C72.772 43.0328 72.9903 44.7596 72.9903 47.4808L72.999 47.4895Z" fill="white"/>
<path d="M96.0869 66.7555C96.0869 66.7555 96.2615 69.0406 96.2615 71.2036C96.2615 73.9247 95.9997 75.608 95.9997 75.608C95.9997 75.7388 95.9124 75.826 95.7814 75.8697C90.6838 76.2185 82.5486 76.1749 77.5819 75.8697C75.9408 75.826 74.9894 75.6952 74.9894 75.6952C74.8585 75.6952 74.7275 75.5208 74.7275 75.3464V69.468C74.7275 69.2935 74.8585 69.1191 74.9894 69.1191L76.2027 69.2063V60.1794C76.2027 59.6997 75.8099 59.4032 75.8099 59.4032C75.8099 59.4032 76.2027 59.1415 76.2027 58.5833V49.0767C75.4258 49.1203 74.9894 49.1203 74.9894 49.1203C74.8585 49.1203 74.7275 48.9895 74.7275 48.8151V42.8931C74.7275 42.7186 74.8585 42.5878 74.9894 42.5878C74.9894 42.5878 82.5573 42.3262 85.3243 42.3262H85.8393C89.3832 42.3262 93.0144 42.3698 95.7814 42.5878C95.9124 42.6314 95.9997 42.7186 95.9997 42.8495C95.9997 42.8495 96.2615 44.5764 96.2615 47.3411C96.2615 49.4605 96.0869 51.702 96.0869 51.702C96.0869 51.9636 95.8251 52.2601 95.5283 52.2601H89.9069C89.6451 52.2601 89.5142 52.0857 89.5142 51.8677C89.5142 51.8677 89.5578 50.699 89.5578 49.1029H89.5142C85.883 49.0593 83.2905 49.2773 82.9413 49.3209V56.0192H89.0341C89.3396 56.0192 89.5927 56.2808 89.5927 56.5774V58.5659C89.5927 59.1241 89.9855 59.3857 89.9855 59.3857C89.9855 59.3857 89.5927 59.691 89.5927 60.162V62.1941C89.5927 62.4994 89.3308 62.7523 89.0341 62.7523H82.9413V69.1017C83.0286 69.1017 83.2905 69.1453 83.6309 69.1453H84.0237C84.0237 69.1453 84.1547 69.1453 84.1983 69.1889C85.368 69.2761 87.2272 69.3197 89.5142 69.3197H89.5578C89.5578 67.7236 89.5142 66.5549 89.5142 66.5549C89.5142 66.3369 89.6451 66.1625 89.9069 66.1625H95.5283C95.8338 66.1625 96.0869 66.4241 96.0869 66.7206V66.7555Z" fill="white"/>
</g>
<defs>
<linearGradient id="paint0_linear_18_89" x1="102.983" y1="103.107" x2="9.22867" y2="24.5887" gradientUnits="userSpaceOnUse">
<stop offset="0.16" stop-color="#004E63"/>
<stop offset="0.96" stop-color="#24C4DB"/>
</linearGradient>
<linearGradient id="paint1_linear_18_89" x1="100.189" y1="-1.73561" x2="-7.51448" y2="24.2254" gradientUnits="userSpaceOnUse">
<stop stop-color="#758085"/>
<stop offset="0.96" stop-color="#556666"/>
</linearGradient>
<linearGradient id="paint2_linear_18_89" x1="101.857" y1="5.15436" x2="-5.85604" y2="31.1154" gradientUnits="userSpaceOnUse">
<stop stop-color="#758085"/>
<stop offset="0.96" stop-color="#556666"/>
</linearGradient>
<linearGradient id="paint3_linear_18_89" x1="103.463" y1="11.8353" x2="-29.4126" y2="43.8585" gradientUnits="userSpaceOnUse">
<stop stop-color="#758085"/>
<stop offset="0.96" stop-color="#556666"/>
</linearGradient>
<clipPath id="clip0_18_89">
<rect width="103" height="105" fill="white"/>
</clipPath>
</defs>
</svg>
