<svg width="60" height="60" viewBox="0 0 60 60" fill="none" xmlns="http://www.w3.org/2000/svg">
<rect opacity="0.15" width="60" height="60" rx="15" fill="#5471AE"/>
<path d="M22.75 25.5357C22.75 25.1569 22.964 24.8107 23.3028 24.6413L30.8742 20.8556C31.1557 20.7148 31.4871 20.7148 31.7686 20.8556L39.3401 24.6413C39.6789 24.8107 39.8929 25.1569 39.8929 25.5357V35.7282C39.8929 36.107 39.6789 36.4533 39.3401 36.6226L31.7686 40.4084C31.4871 40.5491 31.1557 40.5491 30.8742 40.4084L23.3028 36.6226C22.964 36.4533 22.75 36.107 22.75 35.7282V25.5357Z" fill="#87A8ED"/>
<path fill-rule="evenodd" clip-rule="evenodd" d="M31.4332 21.5264C31.3628 21.4912 31.28 21.4912 31.2096 21.5264L23.6382 25.3121C23.5535 25.3545 23.5 25.441 23.5 25.5357V35.7282C23.5 35.8229 23.5535 35.9095 23.6382 35.9518L31.2096 39.7375C31.28 39.7727 31.3628 39.7727 31.4332 39.7375L39.0047 35.9518C39.0894 35.9095 39.1429 35.8229 39.1429 35.7282V25.5357C39.1429 25.441 39.0894 25.3545 39.0047 25.3121L31.4332 21.5264ZM30.5388 20.1848C31.0315 19.9384 31.6114 19.9384 32.1041 20.1848L39.6755 23.9705C40.2684 24.2669 40.6429 24.8729 40.6429 25.5357V35.7282C40.6429 36.3911 40.2684 36.997 39.6755 37.2935L32.1041 41.0792C31.6114 41.3255 31.0315 41.3255 30.5388 41.0792L22.9674 37.2935C22.3745 36.997 22 36.3911 22 35.7282V25.5357C22 24.8729 22.3745 24.2669 22.9674 23.9705L30.5388 20.1848Z" fill="#3F68BE"/>
<path d="M34.1786 30.6325C34.1786 32.2105 32.8995 33.4897 31.3215 33.4897C29.7435 33.4897 28.4644 32.2105 28.4644 30.6325C28.4644 29.0546 29.7435 27.7754 31.3215 27.7754C32.8995 27.7754 34.1786 29.0546 34.1786 30.6325Z" fill="#87A8ED"/>
<path fill-rule="evenodd" clip-rule="evenodd" d="M31.3215 28.5254C30.1578 28.5254 29.2144 29.4688 29.2144 30.6325C29.2144 31.7963 30.1578 32.7397 31.3215 32.7397C32.4852 32.7397 33.4286 31.7963 33.4286 30.6325C33.4286 29.4688 32.4852 28.5254 31.3215 28.5254ZM27.7144 30.6325C27.7144 28.6404 29.3293 27.0254 31.3215 27.0254C33.3137 27.0254 34.9286 28.6404 34.9286 30.6325C34.9286 32.6247 33.3137 34.2397 31.3215 34.2397C29.3293 34.2397 27.7144 32.6247 27.7144 30.6325Z" fill="#4F77CB"/>
</svg>
